<svg version="1.1" id="Layer_1" xmlns="http://www.w3.org/2000/svg" xmlns:xlink="http://www.w3.org/1999/xlink" x="0px" y="0px"
	 width="100%" viewBox="0 0 2000 1500" enable-background="new 0 0 2000 1500" xml:space="preserve">
<path fill="#273D24" opacity="1.000000" stroke="none" 
	d="
M1847.000000,1501.000000 
	C1231.333496,1501.000000 616.167053,1501.000000 1.000413,1501.000000 
	C1.000275,1001.000305 1.000275,501.000671 1.000138,1.000748 
	C667.666138,1.000499 1334.332275,1.000499 2000.998779,1.000249 
	C2000.999268,500.999298 2000.999268,1000.998596 2000.999634,1500.999023 
	C1949.833374,1501.000000 1898.666626,1501.000000 1847.000000,1501.000000 
M579.961975,773.476868 
	C548.592712,800.670776 517.223389,827.864685 485.120422,855.694641 
	C487.011292,855.802551 487.654816,855.871460 488.298340,855.871521 
	C559.445068,855.875793 630.591858,855.926819 701.738464,855.837952 
	C719.534851,855.815735 731.838745,843.337952 731.864075,825.500488 
	C731.933350,776.680969 731.907715,727.861206 731.878418,679.041565 
	C731.866943,659.882935 719.843079,647.929016 700.652588,647.925964 
	C631.338684,647.914917 562.024780,647.921753 492.710846,647.921753 
	C491.144165,647.921753 489.577484,647.921753 486.766083,647.921753 
	C527.002502,682.807007 566.193909,716.786255 605.759460,751.089844 
	C597.042969,758.650208 588.768127,765.827454 579.961975,773.476868 
M844.498779,820.445618 
	C851.243164,820.445618 857.987488,820.445618 865.064026,820.445618 
	C865.064026,801.715027 865.064026,783.801941 865.064026,764.786194 
	C880.029846,781.193848 894.284180,796.821472 908.755005,812.686462 
	C923.806458,796.196777 938.417175,780.189941 953.919434,763.206421 
	C953.919434,783.097839 953.919434,801.521912 953.919434,820.140320 
	C978.182129,820.140320 1002.080688,820.140320 1026.063599,820.140320 
	C1026.063599,761.300964 1026.063599,702.767517 1026.063599,643.999390 
	C1019.228455,643.999390 1012.722229,643.728210 1006.258606,644.134583 
	C1003.721008,644.294128 1000.732666,645.366943 998.875610,647.047302 
	C973.303589,670.185974 947.895325,693.505432 922.440430,716.773621 
	C919.802185,719.185303 917.123108,721.552368 914.429016,723.970581 
	C912.841980,722.522583 911.602051,721.418762 910.391907,720.283142 
	C884.392700,695.884827 858.408142,671.470825 832.368652,647.115601 
	C830.991272,645.827393 829.187378,644.212036 827.525452,644.144653 
	C819.758362,643.829773 811.971436,644.004944 804.205627,644.004944 
	C804.205627,703.061035 804.205627,761.585510 804.205627,820.445618 
	C817.544189,820.445618 830.521667,820.445618 844.498779,820.445618 
M1416.990112,820.428223 
	C1417.663940,819.049011 1418.902466,817.677856 1418.922363,816.289368 
	C1419.081909,805.127380 1419.011841,793.962158 1419.011841,782.797913 
	C1419.011841,774.831604 1419.011719,766.865356 1419.011719,758.431702 
	C1438.558472,758.431702 1457.650757,758.431702 1476.899658,758.431702 
	C1476.899658,742.202515 1476.899658,726.449951 1476.899658,710.198853 
	C1457.581177,710.198853 1438.513428,710.198853 1419.391113,710.198853 
	C1419.391113,704.490112 1419.391113,699.287231 1419.391113,693.656738 
	C1438.844849,693.656738 1457.921387,693.656738 1476.905884,693.656738 
	C1476.905884,676.944153 1476.905884,660.675049 1476.905884,644.336670 
	C1434.611572,644.336670 1392.571411,644.336670 1350.451660,644.336670 
	C1350.451660,703.086426 1350.451660,761.495422 1350.451660,820.444153 
	C1372.488037,820.444153 1394.278564,820.444153 1416.990112,820.428223 
M1682.927246,813.432678 
	C1682.927246,776.168823 1682.927246,738.905029 1682.927246,701.154663 
	C1699.473999,701.154663 1715.536255,701.154663 1731.637695,701.154663 
	C1731.637695,681.812622 1731.637695,662.961914 1731.637695,644.372009 
	C1675.873047,644.372009 1620.498169,644.372009 1565.339355,644.372009 
	C1565.339355,663.491150 1565.339355,682.234314 1565.339355,701.452454 
	C1581.748779,701.452454 1597.811279,701.452454 1614.317139,701.452454 
	C1614.317139,741.331238 1614.317139,780.729797 1614.317139,820.122925 
	C1637.351318,820.122925 1659.925903,820.122925 1682.927246,820.122925 
	C1682.927246,818.010315 1682.927246,816.211853 1682.927246,813.432678 
M1207.535645,767.211060 
	C1204.454712,767.211060 1201.373657,767.211060 1197.870605,767.211060 
	C1197.870605,725.689697 1197.870605,684.964966 1197.870605,644.310059 
	C1174.843262,644.310059 1152.275146,644.310059 1129.562134,644.310059 
	C1129.562134,703.031738 1129.562134,761.438599 1129.562134,820.147339 
	C1172.189697,820.147339 1214.572021,820.147339 1257.169434,820.147339 
	C1257.169434,802.482910 1257.169434,785.077087 1257.169434,767.211060 
	C1240.764160,767.211060 1224.644409,767.211060 1207.535645,767.211060 
M1054.517578,643.998291 
	C1051.058960,643.998291 1047.600342,643.998291 1044.065186,643.998291 
	C1044.065186,703.019775 1044.065186,761.550903 1044.065186,820.053467 
	C1066.937256,820.053467 1089.478027,820.053467 1112.096436,820.053467 
	C1112.096436,761.264526 1112.096436,702.862732 1112.096436,643.998291 
	C1093.083862,643.998291 1074.299072,643.998291 1054.517578,643.998291 
M1283.500366,643.998291 
	C1277.247437,643.998291 1270.994507,643.998291 1264.867920,643.998291 
	C1264.867920,703.139526 1264.867920,761.549561 1264.867920,820.108215 
	C1287.725220,820.108215 1310.263306,820.108215 1332.807373,820.108215 
	C1332.807373,761.255066 1332.807373,702.734863 1332.807373,643.998291 
	C1316.457886,643.998291 1300.479004,643.998291 1283.500366,643.998291 
M1486.550171,716.499573 
	C1486.550171,751.061951 1486.550171,785.624268 1486.550171,820.181519 
	C1509.834961,820.181519 1532.260986,820.181519 1554.878906,820.181519 
	C1554.878906,761.393372 1554.878906,702.864319 1554.878906,644.285034 
	C1531.997437,644.285034 1509.417725,644.285034 1486.550171,644.285034 
	C1486.550171,668.213562 1486.550171,691.856567 1486.550171,716.499573 
M472.383118,785.895081 
	C474.074982,784.398621 475.766846,782.902161 478.108093,780.831299 
	C424.500885,780.831299 371.884644,780.831299 319.036224,780.831299 
	C319.036224,795.878235 319.002167,810.524475 319.044830,825.170410 
	C319.098358,843.549377 331.318726,855.764587 349.788391,855.867920 
	C362.277740,855.937805 374.771301,856.037109 387.254517,855.752136 
	C389.786560,855.694336 392.794037,854.573181 394.714630,852.928833 
	C420.514465,830.838623 446.160217,808.568542 472.383118,785.895081 
M368.500000,647.922424 
	C361.670776,647.923279 354.840759,647.857178 348.012482,647.938843 
	C333.071228,648.117615 320.456055,658.447327 319.474976,673.271973 
	C318.435608,688.977295 319.241547,704.804810 319.241547,720.769043 
	C371.835907,720.769043 424.169281,720.769043 477.364014,720.769043 
	C475.843445,719.394348 474.924286,718.532471 473.972870,717.707764 
	C448.553284,695.673279 423.080780,673.699341 397.771393,651.539062 
	C394.638550,648.796021 391.550323,647.669617 387.486053,647.852844 
	C381.501831,648.122620 375.496399,647.922424 368.500000,647.922424 
z"/>
<path fill="#E8F9CC" opacity="1.000000" stroke="none" 
	d="
M580.227661,773.240845 
	C588.768127,765.827454 597.042969,758.650208 605.759460,751.089844 
	C566.193909,716.786255 527.002502,682.807007 486.766083,647.921753 
	C489.577484,647.921753 491.144165,647.921753 492.710846,647.921753 
	C562.024780,647.921753 631.338684,647.914917 700.652588,647.925964 
	C719.843079,647.929016 731.866943,659.882935 731.878418,679.041565 
	C731.907715,727.861206 731.933350,776.680969 731.864075,825.500488 
	C731.838745,843.337952 719.534851,855.815735 701.738464,855.837952 
	C630.591858,855.926819 559.445068,855.875793 488.298340,855.871521 
	C487.654816,855.871460 487.011292,855.802551 485.120422,855.694641 
	C517.223389,827.864685 548.592712,800.670776 580.227661,773.240845 
M689.178894,738.489197 
	C683.203674,726.291504 673.424072,719.692017 659.851440,719.655212 
	C646.712280,719.619568 636.774109,725.776978 630.975342,737.564514 
	C625.190063,749.324524 626.373657,760.899231 634.228943,771.421265 
	C643.783752,784.219788 661.357849,787.765381 675.432556,780.069641 
	C689.841431,772.191040 695.504883,755.777405 689.178894,738.489197 
z"/>
<path fill="#E9FACD" opacity="1.000000" stroke="none" 
	d="
M843.998962,820.445618 
	C830.521667,820.445618 817.544189,820.445618 804.205627,820.445618 
	C804.205627,761.585510 804.205627,703.061035 804.205627,644.004944 
	C811.971436,644.004944 819.758362,643.829773 827.525452,644.144653 
	C829.187378,644.212036 830.991272,645.827393 832.368652,647.115601 
	C858.408142,671.470825 884.392700,695.884827 910.391907,720.283142 
	C911.602051,721.418762 912.841980,722.522583 914.429016,723.970581 
	C917.123108,721.552368 919.802185,719.185303 922.440430,716.773621 
	C947.895325,693.505432 973.303589,670.185974 998.875610,647.047302 
	C1000.732666,645.366943 1003.721008,644.294128 1006.258606,644.134583 
	C1012.722229,643.728210 1019.228455,643.999390 1026.063599,643.999390 
	C1026.063599,702.767517 1026.063599,761.300964 1026.063599,820.140320 
	C1002.080688,820.140320 978.182129,820.140320 953.919434,820.140320 
	C953.919434,801.521912 953.919434,783.097839 953.919434,763.206421 
	C938.417175,780.189941 923.806458,796.196777 908.755005,812.686462 
	C894.284180,796.821472 880.029846,781.193848 865.064026,764.786194 
	C865.064026,783.801941 865.064026,801.715027 865.064026,820.445618 
	C857.987488,820.445618 851.243164,820.445618 843.998962,820.445618 
z"/>
<path fill="#E8F9CC" opacity="1.000000" stroke="none" 
	d="
M1416.529541,820.436157 
	C1394.278564,820.444153 1372.488037,820.444153 1350.451660,820.444153 
	C1350.451660,761.495422 1350.451660,703.086426 1350.451660,644.336670 
	C1392.571411,644.336670 1434.611572,644.336670 1476.905884,644.336670 
	C1476.905884,660.675049 1476.905884,676.944153 1476.905884,693.656738 
	C1457.921387,693.656738 1438.844849,693.656738 1419.391113,693.656738 
	C1419.391113,699.287231 1419.391113,704.490112 1419.391113,710.198853 
	C1438.513428,710.198853 1457.581177,710.198853 1476.899658,710.198853 
	C1476.899658,726.449951 1476.899658,742.202515 1476.899658,758.431702 
	C1457.650757,758.431702 1438.558472,758.431702 1419.011719,758.431702 
	C1419.011719,766.865356 1419.011841,774.831604 1419.011841,782.797913 
	C1419.011841,793.962158 1419.081909,805.127380 1418.922363,816.289368 
	C1418.902466,817.677856 1417.663940,819.049011 1416.529541,820.436157 
z"/>
<path fill="#E9FACD" opacity="1.000000" stroke="none" 
	d="
M1682.927246,813.923035 
	C1682.927246,816.211853 1682.927246,818.010315 1682.927246,820.122925 
	C1659.925903,820.122925 1637.351318,820.122925 1614.317139,820.122925 
	C1614.317139,780.729797 1614.317139,741.331238 1614.317139,701.452454 
	C1597.811279,701.452454 1581.748779,701.452454 1565.339355,701.452454 
	C1565.339355,682.234314 1565.339355,663.491150 1565.339355,644.372009 
	C1620.498169,644.372009 1675.873047,644.372009 1731.637695,644.372009 
	C1731.637695,662.961914 1731.637695,681.812622 1731.637695,701.154663 
	C1715.536255,701.154663 1699.473999,701.154663 1682.927246,701.154663 
	C1682.927246,738.905029 1682.927246,776.168823 1682.927246,813.923035 
z"/>
<path fill="#E8F9CC" opacity="1.000000" stroke="none" 
	d="
M1208.030029,767.211060 
	C1224.644409,767.211060 1240.764160,767.211060 1257.169434,767.211060 
	C1257.169434,785.077087 1257.169434,802.482910 1257.169434,820.147339 
	C1214.572021,820.147339 1172.189697,820.147339 1129.562134,820.147339 
	C1129.562134,761.438599 1129.562134,703.031738 1129.562134,644.310059 
	C1152.275146,644.310059 1174.843262,644.310059 1197.870605,644.310059 
	C1197.870605,684.964966 1197.870605,725.689697 1197.870605,767.211060 
	C1201.373657,767.211060 1204.454712,767.211060 1208.030029,767.211060 
z"/>
<path fill="#E9FACD" opacity="1.000000" stroke="none" 
	d="
M1055.015991,643.998291 
	C1074.299072,643.998291 1093.083862,643.998291 1112.096436,643.998291 
	C1112.096436,702.862732 1112.096436,761.264526 1112.096436,820.053467 
	C1089.478027,820.053467 1066.937256,820.053467 1044.065186,820.053467 
	C1044.065186,761.550903 1044.065186,703.019775 1044.065186,643.998291 
	C1047.600342,643.998291 1051.058960,643.998291 1055.015991,643.998291 
z"/>
<path fill="#E9FACD" opacity="1.000000" stroke="none" 
	d="
M1284.000244,643.998291 
	C1300.479004,643.998291 1316.457886,643.998291 1332.807373,643.998291 
	C1332.807373,702.734863 1332.807373,761.255066 1332.807373,820.108215 
	C1310.263306,820.108215 1287.725220,820.108215 1264.867920,820.108215 
	C1264.867920,761.549561 1264.867920,703.139526 1264.867920,643.998291 
	C1270.994507,643.998291 1277.247437,643.998291 1284.000244,643.998291 
z"/>
<path fill="#E9FACD" opacity="1.000000" stroke="none" 
	d="
M1486.550171,715.999512 
	C1486.550171,691.856567 1486.550171,668.213562 1486.550171,644.285034 
	C1509.417725,644.285034 1531.997437,644.285034 1554.878906,644.285034 
	C1554.878906,702.864319 1554.878906,761.393372 1554.878906,820.181519 
	C1532.260986,820.181519 1509.834961,820.181519 1486.550171,820.181519 
	C1486.550171,785.624268 1486.550171,751.061951 1486.550171,715.999512 
z"/>
<path fill="#E7F8CB" opacity="1.000000" stroke="none" 
	d="
M472.113647,786.119080 
	C446.160217,808.568542 420.514465,830.838623 394.714630,852.928833 
	C392.794037,854.573181 389.786560,855.694336 387.254517,855.752136 
	C374.771301,856.037109 362.277740,855.937805 349.788391,855.867920 
	C331.318726,855.764587 319.098358,843.549377 319.044830,825.170410 
	C319.002167,810.524475 319.036224,795.878235 319.036224,780.831299 
	C371.884644,780.831299 424.500885,780.831299 478.108093,780.831299 
	C475.766846,782.902161 474.074982,784.398621 472.113647,786.119080 
z"/>
<path fill="#E8F9CD" opacity="1.000000" stroke="none" 
	d="
M369.000000,647.922424 
	C375.496399,647.922424 381.501831,648.122620 387.486053,647.852844 
	C391.550323,647.669617 394.638550,648.796021 397.771393,651.539062 
	C423.080780,673.699341 448.553284,695.673279 473.972870,717.707764 
	C474.924286,718.532471 475.843445,719.394348 477.364014,720.769043 
	C424.169281,720.769043 371.835907,720.769043 319.241547,720.769043 
	C319.241547,704.804810 318.435608,688.977295 319.474976,673.271973 
	C320.456055,658.447327 333.071228,648.117615 348.012482,647.938843 
	C354.840759,647.857178 361.670776,647.923279 369.000000,647.922424 
z"/>
<path fill="#283E25" opacity="1.000000" stroke="none" 
	d="
M689.362427,738.828003 
	C695.504883,755.777405 689.841431,772.191040 675.432556,780.069641 
	C661.357849,787.765381 643.783752,784.219788 634.228943,771.421265 
	C626.373657,760.899231 625.190063,749.324524 630.975342,737.564514 
	C636.774109,725.776978 646.712280,719.619568 659.851440,719.655212 
	C673.424072,719.692017 683.203674,726.291504 689.362427,738.828003 
z"/>
</svg>