<svg version="1.1" id="Layer_1" xmlns="http://www.w3.org/2000/svg" xmlns:xlink="http://www.w3.org/1999/xlink" x="0px" y="0px"
	 width="100%" viewBox="0 0 318 317" enable-background="new 0 0 318 317" xml:space="preserve">
<path fill="#273E24" opacity="1.000000" stroke="none" 
	d="
M319.000000,255.000000 
	C319.000000,275.979309 319.000000,296.958588 319.000000,317.937988 
	C212.999985,317.938049 106.999977,317.938049 1.000000,317.938049 
	C1.000000,297.229858 1.000000,276.583588 1.465618,255.419388 
	C5.263534,254.897858 8.625603,254.611465 11.920990,254.958420 
	C16.595316,255.450577 20.040722,253.750961 23.521196,250.707962 
	C49.597427,227.909180 75.824455,205.282898 101.988174,182.584076 
	C102.765747,181.909485 103.366158,181.030701 104.521652,179.705048 
	C102.473274,179.580215 101.186737,179.433731 99.900162,179.433365 
	C68.909729,179.424423 37.919289,179.439072 6.928877,179.416306 
	C4.952484,179.414841 2.976287,179.145004 1.000000,179.000000 
	C1.000000,159.645767 1.000000,140.291550 1.468454,120.483444 
	C35.814682,120.029579 69.692451,120.029579 104.687134,120.029579 
	C102.845718,118.371780 101.912933,117.503746 100.950607,116.669800 
	C78.683289,97.372917 55.889229,78.640015 34.375252,58.537132 
	C24.401308,49.217373 14.202914,44.867729 1.000000,47.000000 
	C1.000000,31.683043 1.000000,16.366083 1.000005,1.052247 
	C107.000015,1.055369 213.000015,1.055369 319.000000,1.055369 
	C319.000000,16.094719 319.000000,31.078701 318.532318,46.499191 
	C250.375534,46.935699 182.686432,46.935699 113.784302,46.935699 
	C153.998581,81.802338 193.184937,115.777748 232.765121,150.094620 
	C192.524170,184.986664 152.721863,219.498367 111.917015,254.879364 
	C114.715477,254.879364 116.138535,254.879379 117.561592,254.879364 
	C147.719910,254.878922 177.878235,254.862717 208.036545,254.882080 
	C245.024384,254.905838 282.012177,254.959351 319.000000,255.000000 
z"/>
<path fill="#E8F9CD" opacity="1.000000" stroke="none" 
	d="
M319.000000,254.531342 
	C282.012177,254.959351 245.024384,254.905838 208.036545,254.882080 
	C177.878235,254.862717 147.719910,254.878922 117.561592,254.879364 
	C116.138535,254.879379 114.715477,254.879364 111.917015,254.879364 
	C152.721863,219.498367 192.524170,184.986664 232.765121,150.094620 
	C193.184937,115.777748 153.998581,81.802338 113.784302,46.935699 
	C182.686432,46.935699 250.375534,46.935699 318.532318,46.967850 
	C319.000000,79.354225 319.000000,111.708458 318.694031,144.319214 
	C315.123993,128.678024 301.083588,117.605446 285.415710,118.572929 
	C268.484070,119.618454 255.882370,132.005615 254.646011,148.818771 
	C253.472519,164.777161 264.357513,178.940125 280.481171,182.434067 
	C295.897736,185.774765 311.446869,177.027542 317.118286,161.862930 
	C317.617737,160.527496 318.366852,159.285431 319.000000,158.000000 
	C319.000000,190.020889 319.000000,222.041794 319.000000,254.531342 
z"/>
<path fill="#E6F8CB" opacity="1.000000" stroke="none" 
	d="
M1.000000,179.468658 
	C2.976287,179.145004 4.952484,179.414841 6.928877,179.416306 
	C37.919289,179.439072 68.909729,179.424423 99.900162,179.433365 
	C101.186737,179.433731 102.473274,179.580215 104.521652,179.705048 
	C103.366158,181.030701 102.765747,181.909485 101.988174,182.584076 
	C75.824455,205.282898 49.597427,227.909180 23.521196,250.707962 
	C20.040722,253.750961 16.595316,255.450577 11.920990,254.958420 
	C8.625603,254.611465 5.263534,254.897858 1.465618,254.950729 
	C1.000000,229.979111 1.000000,204.958206 1.000000,179.468658 
z"/>
<path fill="#E8F9CD" opacity="1.000000" stroke="none" 
	d="
M1.000000,47.468658 
	C14.202914,44.867729 24.401308,49.217373 34.375252,58.537132 
	C55.889229,78.640015 78.683289,97.372917 100.950607,116.669800 
	C101.912933,117.503746 102.845718,118.371780 104.687134,120.029579 
	C69.692451,120.029579 35.814682,120.029579 1.468454,120.014786 
	C1.000000,95.979103 1.000000,71.958214 1.000000,47.468658 
z"/>
<path fill="#293F25" opacity="1.000000" stroke="none" 
	d="
M319.000000,157.536819 
	C318.366852,159.285431 317.617737,160.527496 317.118286,161.862930 
	C311.446869,177.027542 295.897736,185.774765 280.481171,182.434067 
	C264.357513,178.940125 253.472519,164.777161 254.646011,148.818771 
	C255.882370,132.005615 268.484070,119.618454 285.415710,118.572929 
	C301.083588,117.605446 315.123993,128.678024 318.694031,144.787872 
	C319.000000,149.024551 319.000000,153.049088 319.000000,157.536819 
z"/>
</svg>